{
  "accessors": [
    {
      "bufferView": 2,
      "componentType": 5126,
      "count": 24,
      "max": [
        -0.5357896089553833,
        5.208882808685303,
        3.87990140914917
      ],
      "min": [
        -0.6361977458000183,
        -5.208882808685303,
        -0.6119601726531982
      ],
      "type": "VEC3"
    },
    {
      "bufferView": 2,
      "byteOffset": 288,
      "componentType": 5126,
      "count": 24,
      "max": [
        1.0,
        1.0,
        1.0
      ],
      "min": [
        -1.0,
        -1.0,
        -1.0
      ],
      "type": "VEC3"
    },
    {
      "bufferView": 1,
      "componentType": 5126,
      "count": 24,
      "max": [
        1.0,
        1.0
      ],
      "min": [
        0.0,
        0.0
      ],
      "type": "VEC2"
    },
    {
      "bufferView": 1,
      "byteOffset": 192,
      "componentType": 5126,
      "count": 24,
      "max": [
        1.0,
        1.0
      ],
      "min": [
        0.0,
        0.0
      ],
      "type": "VEC2"
    },
    {
      "bufferView": 0,
      "componentType": 5125,
      "count": 36,
      "type": "SCALAR"
    },
    {
      "bufferView": 2,
      "byteOffset": 576,
      "componentType": 5126,
      "count": 384,
      "max": [
        1.0000170469284058,
        33.1185302734375,
        1.0
      ],
      "min": [
        -1.0,
        -1.0,
        -2.646362066268921
      ],
      "type": "VEC3"
    },
    {
      "bufferView": 2,
      "byteOffset": 5184,
      "componentType": 5126,
      "count": 384,
      "max": [
        0.9951847791671753,
        0.9951848387718201,
        1.0
      ],
      "min": [
        -0.9951847791671753,
        -0.9951847791671753,
        -1.0
      ],
      "type": "VEC3"
    },
    {
      "bufferView": 1,
      "byteOffset": 384,
      "componentType": 5126,
      "count": 384,
      "max": [
        1.0,
        1.0
      ],
      "min": [
        0.0,
        0.01000000536441803
      ],
      "type": "VEC2"
    },
    {
      "bufferView": 0,
      "byteOffset": 144,
      "componentType": 5125,
      "count": 744,
      "type": "SCALAR"
    },
    {
      "bufferView": 2,
      "byteOffset": 9792,
      "componentType": 5126,
      "count": 408,
      "max": [
        1.044105052947998,
        0.44790345430374146,
        0.006700932048261166
      ],
      "min": [
        0.5254275798797607,
        -0.44790345430374146,
        -0.01781272143125534
      ],
      "type": "VEC3"
    },
    {
      "bufferView": 2,
      "byteOffset": 14688,
      "componentType": 5126,
      "count": 408,
      "max": [
        1.0,
        1.0,
        1.0
      ],
      "min": [
        -1.0,
        -1.0,
        -1.0
      ],
      "type": "VEC3"
    },
    {
      "bufferView": 1,
      "byteOffset": 3456,
      "componentType": 5126,
      "count": 408,
      "max": [
        1.0,
        1.0
      ],
      "min": [
        0.0,
        0.0
      ],
      "type": "VEC2"
    },
    {
      "bufferView": 0,
      "byteOffset": 3120,
      "componentType": 5125,
      "count": 780,
      "type": "SCALAR"
    },
    {
      "bufferView": 2,
      "byteOffset": 19584,
      "componentType": 5126,
      "count": 588,
      "max": [
        3.319265842437744,
        1.753216028213501,
        0.0725162997841835
      ],
      "min": [
        1.1023391485214233,
        -1.753216028213501,
        -0.0725162997841835
      ],
      "type": "VEC3"
    },
    {
      "bufferView": 2,
      "byteOffset": 26640,
      "componentType": 5126,
      "count": 588,
      "max": [
        1.0,
        1.0,
        0.9999767541885376
      ],
      "min": [
        -1.0,
        -1.0,
        -0.9999767541885376
      ],
      "type": "VEC3"
    },
    {
      "bufferView": 1,
      "byteOffset": 6720,
      "componentType": 5126,
      "count": 588,
      "max": [
        0.8916138410568237,
        0.6835494637489319
      ],
      "min": [
        0.1400665044784546,
        0.3164505362510681
      ],
      "type": "VEC2"
    },
    {
      "bufferView": 0,
      "byteOffset": 6240,
      "componentType": 5125,
      "count": 3456,
      "type": "SCALAR"
    }
  ],
  "asset": {
    "extras": {
      "author": "BRT_GAMES (https://sketchfab.com/faithfullprogrammer)",
      "license": "CC-BY-4.0 (http://creativecommons.org/licenses/by/4.0/)",
      "source": "https://sketchfab.com/3d-models/basketball-hoop-0def9f418739418984a48c8faa6561ea",
      "title": "Basketball Hoop"
    },
    "generator": "Sketchfab-12.65.0",
    "version": "2.0"
  },
  "bufferViews": [
    {
      "buffer": 0,
      "byteLength": 20064,
      "name": "floatBufferViews",
      "target": 34963
    },
    {
      "buffer": 0,
      "byteLength": 11424,
      "byteOffset": 20064,
      "byteStride": 8,
      "name": "floatBufferViews",
      "target": 34962
    },
    {
      "buffer": 0,
      "byteLength": 33696,
      "byteOffset": 31488,
      "byteStride": 12,
      "name": "floatBufferViews",
      "target": 34962
    }
  ],
  "buffers": [
    {
      "byteLength": 65184,
      "uri": "scene.bin"
    }
  ],
  "images": [
    {
      "uri": "textures/M_Backboard_baseColor.png"
    },
    {
      "uri": "textures/M_BasketballHoop_baseColor.png"
    }
  ],
  "materials": [
    {
      "doubleSided": true,
      "name": "M_Backboard",
      "pbrMetallicRoughness": {
        "baseColorTexture": {
          "index": 0
        },
        "metallicFactor": 0.0,
        "roughnessFactor": 0.8211145618
      }
    },
    {
      "doubleSided": true,
      "name": "M_Metallic",
      "pbrMetallicRoughness": {
        "baseColorFactor": [
          0.8,
          0.8,
          0.8,
          1.0
        ],
        "metallicFactor": 0.0,
        "roughnessFactor": 0.7905504977
      }
    },
    {
      "doubleSided": true,
      "name": "M_BasketballHoop",
      "pbrMetallicRoughness": {
        "baseColorTexture": {
          "index": 1
        },
        "metallicFactor": 0.0,
        "roughnessFactor": 0.8211145618
      }
    }
  ],
  "meshes": [
    {
      "name": "Backboard_M_Backboard_0",
      "primitives": [
        {
          "attributes": {
            "NORMAL": 1,
            "POSITION": 0,
            "TEXCOORD_0": 2,
            "TEXCOORD_1": 3
          },
          "indices": 4,
          "material": 0,
          "mode": 4
        }
      ]
    },
    {
      "name": "SupportStick_M_Metallic_0",
      "primitives": [
        {
          "attributes": {
            "NORMAL": 6,
            "POSITION": 5,
            "TEXCOORD_0": 7
          },
          "indices": 8,
          "material": 1,
          "mode": 4
        }
      ]
    },
    {
      "name": "SupportPart_M_Metallic_0",
      "primitives": [
        {
          "attributes": {
            "NORMAL": 10,
            "POSITION": 9,
            "TEXCOORD_0": 11
          },
          "indices": 12,
          "material": 1,
          "mode": 4
        }
      ]
    },
    {
      "name": "Hoop_M_BasketballHoop_0",
      "primitives": [
        {
          "attributes": {
            "NORMAL": 14,
            "POSITION": 13,
            "TEXCOORD_0": 15
          },
          "indices": 16,
          "material": 2,
          "mode": 4
        }
      ]
    }
  ],
  "nodes": [
    {
      "children": [
        1
      ],
      "matrix": [
        1.0,
        0.0,
        0.0,
        0.0,
        0.0,
        2.220446049250313e-16,
        -1.0,
        0.0,
        0.0,
        1.0,
        2.220446049250313e-16,
        0.0,
        0.0,
        0.0,
        0.0,
        1.0
      ],
      "name": "Sketchfab_model"
    },
    {
      "children": [
        2
      ],
      "matrix": [
        1.0,
        0.0,
        0.0,
        0.0,
        0.0,
        0.0,
        1.0,
        0.0,
        0.0,
        -1.0,
        0.0,
        0.0,
        0.0,
        0.0,
        0.0,
        1.0
      ],
      "name": "BasketballHoop.fbx"
    },
    {
      "children": [
        3,
        5,
        7,
        9
      ],
      "name": "RootNode"
    },
    {
      "children": [
        4
      ],
      "matrix": [
        58.44761276245117,
        0.0,
        0.0,
        0.0,
        -0.0,
        -6.0204487399225865e-06,
        -36.953250885009275,
        0.0,
        0.0,
        58.4476127624504,
        -9.52232478008922e-06,
        0.0,
        -165.3221893310547,
        0.0,
        0.0,
        1.0
      ],
      "name": "Backboard"
    },
    {
      "mesh": 0,
      "name": "Backboard_M_Backboard_0"
    },
    {
      "children": [
        6
      ],
      "matrix": [
        4.12135764341938e-07,
        2.1166951656341153,
        -2.199196650731728e-08,
        0.0,
        -0.3675600943628598,
        4.990873299071849e-08,
        -2.084537838766898,
        0.0,
        -30.46384248309096,
        5.987338733431047e-06,
        5.371594897199959,
        0.0,
        -168.15542602539063,
        0.0,
        29.3741397857666,
        1.0
      ],
      "name": "SupportStick"
    },
    {
      "mesh": 1,
      "name": "SupportStick_M_Metallic_0"
    },
    {
      "children": [
        8
      ],
      "matrix": [
        7.549789948768648e-06,
        -99.99999999999973,
        0.0,
        0.0,
        7.549789954319763e-06,
        5.551115123125783e-13,
        -99.99999999999973,
        0.0,
        99.99999999999945,
        7.549789954319763e-06,
        7.549789948768648e-06,
        0.0,
        -194.85655212402344,
        79.85012817382813,
        0.6996556520462036,
        1.0
      ],
      "name": "SupportPart"
    },
    {
      "mesh": 2,
      "name": "SupportPart_M_Metallic_0"
    },
    {
      "children": [
        10
      ],
      "matrix": [
        58.44761276245117,
        0.0,
        0.0,
        0.0,
        -0.0,
        -6.0204487399225865e-06,
        -36.953250885009275,
        0.0,
        0.0,
        58.4476127624504,
        -9.52232478008922e-06,
        0.0,
        -165.3221893310547,
        0.0,
        0.0,
        1.0
      ],
      "name": "Hoop"
    },
    {
      "mesh": 3,
      "name": "Hoop_M_BasketballHoop_0"
    }
  ],
  "samplers": [
    {
      "magFilter": 9729,
      "minFilter": 9987,
      "wrapS": 10497,
      "wrapT": 10497
    }
  ],
  "scene": 0,
  "scenes": [
    {
      "name": "Sketchfab_Scene",
      "nodes": [
        0
      ]
    }
  ],
  "textures": [
    {
      "sampler": 0,
      "source": 0
    },
    {
      "sampler": 0,
      "source": 1
    }
  ]
}
